<?xml version="1.0" encoding="UTF-8" standalone="no"?>
<!DOCTYPE svg PUBLIC "-//W3C//DTD SVG 1.1//EN"
 "http://www.w3.org/Graphics/SVG/1.1/DTD/svg11.dtd">
<!-- Generated by graphviz version 2.26.3 (20100126.1600)
 -->
<!-- Title: G Pages: 1 -->
<svg width="588pt" height="1056pt"
 viewBox="0.00 0.00 588.00 1056.00" xmlns="http://www.w3.org/2000/svg" xmlns:xlink="http://www.w3.org/1999/xlink">
<g id="graph1" class="graph" transform="scale(1 1) rotate(0) translate(4 1052)">
<title>G</title>
<polygon fill="white" stroke="white" points="-4,5 -4,-1052 585,-1052 585,5 -4,5"/>
<g id="graph2" class="cluster"><title>cluster_Phlyty</title>
<polyline fill="none" stroke="gray" points="73,-260 560,-260 "/>
<path fill="none" stroke="gray" d="M560,-260C566,-260 572,-266 572,-272"/>
<polyline fill="none" stroke="gray" points="572,-272 572,-1028 "/>
<path fill="none" stroke="gray" d="M572,-1028C572,-1034 566,-1040 560,-1040"/>
<polyline fill="none" stroke="gray" points="560,-1040 73,-1040 "/>
<path fill="none" stroke="gray" d="M73,-1040C67,-1040 61,-1034 61,-1028"/>
<polyline fill="none" stroke="gray" points="61,-1028 61,-272 "/>
<path fill="none" stroke="gray" d="M61,-272C61,-266 67,-260 73,-260"/>
<text text-anchor="middle" x="316.5" y="-1026.1" font-family="Times Roman,serif" font-size="11.00" fill="gray">Phlyty</text>
</g>
<g id="graph3" class="cluster"><title>cluster_Phlyty\Exception</title>
<polyline fill="none" stroke="gray" points="81,-558 552,-558 "/>
<path fill="none" stroke="gray" d="M552,-558C558,-558 564,-564 564,-570"/>
<polyline fill="none" stroke="gray" points="564,-570 564,-998 "/>
<path fill="none" stroke="gray" d="M564,-998C564,-1004 558,-1010 552,-1010"/>
<polyline fill="none" stroke="gray" points="552,-1010 81,-1010 "/>
<path fill="none" stroke="gray" d="M81,-1010C75,-1010 69,-1004 69,-998"/>
<polyline fill="none" stroke="gray" points="69,-998 69,-570 "/>
<path fill="none" stroke="gray" d="M69,-570C69,-564 75,-558 81,-558"/>
<text text-anchor="middle" x="316.5" y="-996.1" font-family="Times Roman,serif" font-size="11.00" fill="gray">Exception</text>
</g>
<g id="graph4" class="cluster"><title>cluster_Phlyty\View</title>
<polyline fill="none" stroke="gray" points="98,-422 522,-422 "/>
<path fill="none" stroke="gray" d="M522,-422C528,-422 534,-428 534,-434"/>
<polyline fill="none" stroke="gray" points="534,-434 534,-538 "/>
<path fill="none" stroke="gray" d="M534,-538C534,-544 528,-550 522,-550"/>
<polyline fill="none" stroke="gray" points="522,-550 98,-550 "/>
<path fill="none" stroke="gray" d="M98,-550C92,-550 86,-544 86,-538"/>
<polyline fill="none" stroke="gray" points="86,-538 86,-434 "/>
<path fill="none" stroke="gray" d="M86,-434C86,-428 92,-422 98,-422"/>
<text text-anchor="middle" x="310" y="-536.1" font-family="Times Roman,serif" font-size="11.00" fill="gray">View</text>
</g>
<!-- \\Phlyty\\Exception\\PageNotFoundException -->
<g id="node3" class="node"><title>\\Phlyty\\Exception\\PageNotFoundException</title>
<a xlink:href="Exception.PageNotFoundException.html" xlink:title="PageNotFoundException" target="_parent">
<polygon fill="none" stroke="black" points="539,-980 381,-980 381,-944 539,-944 539,-980"/>
<text text-anchor="middle" x="460" y="-959.1" font-family="Courier,monospace" font-size="11.00">PageNotFoundException</text>
</a>
</g>
<!-- \\Phlyty\\Exception\\ExceptionInterface -->
<g id="node9" class="node"><title>\\Phlyty\\Exception\\ExceptionInterface</title>
<a xlink:href="Exception.ExceptionInterface.html" xlink:title="ExceptionInterface" target="_parent">
<polygon fill="none" stroke="black" points="215,-791 77,-791 77,-755 215,-755 215,-791"/>
<text text-anchor="middle" x="146" y="-770.1" font-family="Courier,monospace" font-size="11.00">ExceptionInterface</text>
</a>
</g>
<!-- \\Phlyty\\Exception\\PageNotFoundException&#45;&gt;\\Phlyty\\Exception\\ExceptionInterface -->
<g id="edge25" class="edge"><title>\\Phlyty\\Exception\\PageNotFoundException&#45;&gt;\\Phlyty\\Exception\\ExceptionInterface</title>
<path fill="none" stroke="black" stroke-dasharray="1,5" d="M385.346,-943.938C377.994,-941.292 370.76,-938.321 364,-935 288.335,-897.829 212.031,-833.565 172.884,-798.18"/>
<polygon fill="none" stroke="black" points="174.855,-795.24 165.108,-791.087 170.138,-800.412 174.855,-795.24"/>
</g>
<!-- \\Exception -->
<g id="node20" class="node"><title>\\Exception</title>
<ellipse fill="none" stroke="black" cx="146" cy="-234" rx="62.9325" ry="18.3848"/>
<text text-anchor="middle" x="146" y="-230.4" font-family="Times Roman,serif" font-size="14.00" fill="gray">\Exception</text>
</g>
<!-- \\Phlyty\\Exception\\PageNotFoundException&#45;&gt;\\Exception -->
<g id="edge5" class="edge"><title>\\Phlyty\\Exception\\PageNotFoundException&#45;&gt;\\Exception</title>
<path fill="none" stroke="black" d="M380.927,-948.427C374.577,-944.887 368.781,-940.479 364,-935 211.462,-760.203 383.317,-631.267 292,-418 264.02,-352.654 206.451,-290.986 172.561,-258.286"/>
<polygon fill="none" stroke="black" points="174.957,-255.735 165.301,-251.374 170.131,-260.805 174.957,-255.735"/>
</g>
<!-- \\Phlyty\\Exception\\InvalidMethodException -->
<g id="node4" class="node"><title>\\Phlyty\\Exception\\InvalidMethodException</title>
<a xlink:href="Exception.InvalidMethodException.html" xlink:title="InvalidMethodException" target="_parent">
<polygon fill="none" stroke="black" points="542,-818 378,-818 378,-782 542,-782 542,-818"/>
<text text-anchor="middle" x="460" y="-797.1" font-family="Courier,monospace" font-size="11.00">InvalidMethodException</text>
</a>
</g>
<!-- \\Phlyty\\Exception\\InvalidMethodException&#45;&gt;\\Phlyty\\Exception\\ExceptionInterface -->
<g id="edge27" class="edge"><title>\\Phlyty\\Exception\\InvalidMethodException&#45;&gt;\\Phlyty\\Exception\\ExceptionInterface</title>
<path fill="none" stroke="black" stroke-dasharray="1,5" d="M377.089,-792.871C330.031,-788.824 271.449,-783.787 225.044,-779.797"/>
<polygon fill="none" stroke="black" points="225.298,-776.306 215.035,-778.936 224.698,-783.28 225.298,-776.306"/>
</g>
<!-- \\InvalidArgumentException -->
<g id="node22" class="node"><title>\\InvalidArgumentException</title>
<ellipse fill="none" stroke="black" cx="146" cy="-180" rx="143.043" ry="18.3848"/>
<text text-anchor="middle" x="146" y="-176.4" font-family="Times Roman,serif" font-size="14.00" fill="gray">\InvalidArgumentException</text>
</g>
<!-- \\Phlyty\\Exception\\InvalidMethodException&#45;&gt;\\InvalidArgumentException -->
<g id="edge7" class="edge"><title>\\Phlyty\\Exception\\InvalidMethodException&#45;&gt;\\InvalidArgumentException</title>
<path fill="none" stroke="black" d="M377.303,-784.36C372.36,-781.208 367.844,-777.458 364,-773 198.403,-580.954 466.189,-391.289 292,-207 287.468,-202.205 282.383,-198.1 276.901,-194.593"/>
<polygon fill="none" stroke="black" points="278.411,-191.426 267.982,-189.563 274.973,-197.524 278.411,-191.426"/>
</g>
<!-- \\Phlyty\\Exception\\HaltException -->
<g id="node5" class="node"><title>\\Phlyty\\Exception\\HaltException</title>
<a xlink:href="Exception.HaltException.html" xlink:title="HaltException" target="_parent">
<polygon fill="none" stroke="black" points="512,-926 408,-926 408,-890 512,-890 512,-926"/>
<text text-anchor="middle" x="460" y="-905.1" font-family="Courier,monospace" font-size="11.00">HaltException</text>
</a>
</g>
<!-- \\Phlyty\\Exception\\HaltException&#45;&gt;\\Phlyty\\Exception\\ExceptionInterface -->
<g id="edge29" class="edge"><title>\\Phlyty\\Exception\\HaltException&#45;&gt;\\Phlyty\\Exception\\ExceptionInterface</title>
<path fill="none" stroke="black" stroke-dasharray="1,5" d="M407.608,-895.163C393.292,-891.144 377.898,-886.344 364,-881 300.092,-856.428 229.708,-819.67 186.675,-796.012"/>
<polygon fill="none" stroke="black" points="188.103,-792.802 177.658,-791.026 184.715,-798.927 188.103,-792.802"/>
</g>
<!-- \\Phlyty\\Exception\\HaltException&#45;&gt;\\Exception -->
<g id="edge9" class="edge"><title>\\Phlyty\\Exception\\HaltException&#45;&gt;\\Exception</title>
<path fill="none" stroke="black" d="M407.798,-904.233C391.624,-900.485 375.142,-893.565 364,-881 225.831,-725.186 375.49,-608.782 292,-418 263.545,-352.979 206.297,-291.32 172.559,-258.507"/>
<polygon fill="none" stroke="black" points="174.565,-255.581 164.925,-251.184 169.719,-260.632 174.565,-255.581"/>
</g>
<!-- \\Phlyty\\Exception\\DuplicateRouteException -->
<g id="node6" class="node"><title>\\Phlyty\\Exception\\DuplicateRouteException</title>
<a xlink:href="Exception.DuplicateRouteException.html" xlink:title="DuplicateRouteException" target="_parent">
<polygon fill="none" stroke="black" points="546,-656 374,-656 374,-620 546,-620 546,-656"/>
<text text-anchor="middle" x="460" y="-635.1" font-family="Courier,monospace" font-size="11.00">DuplicateRouteException</text>
</a>
</g>
<!-- \\Phlyty\\Exception\\DuplicateRouteException&#45;&gt;\\Phlyty\\Exception\\ExceptionInterface -->
<g id="edge31" class="edge"><title>\\Phlyty\\Exception\\DuplicateRouteException&#45;&gt;\\Phlyty\\Exception\\ExceptionInterface</title>
<path fill="none" stroke="black" stroke-dasharray="1,5" d="M390.024,-656.036C381.181,-658.795 372.322,-661.8 364,-665 300.092,-689.572 229.708,-726.33 186.675,-749.988"/>
<polygon fill="none" stroke="black" points="184.715,-747.073 177.658,-754.974 188.103,-753.198 184.715,-747.073"/>
</g>
<!-- \\DomainException -->
<g id="node25" class="node"><title>\\DomainException</title>
<ellipse fill="none" stroke="black" cx="146" cy="-126" rx="99.9096" ry="18.3848"/>
<text text-anchor="middle" x="146" y="-122.4" font-family="Times Roman,serif" font-size="14.00" fill="gray">\DomainException</text>
</g>
<!-- \\Phlyty\\Exception\\DuplicateRouteException&#45;&gt;\\DomainException -->
<g id="edge11" class="edge"><title>\\Phlyty\\Exception\\DuplicateRouteException&#45;&gt;\\DomainException</title>
<path fill="none" stroke="black" d="M374.009,-619.929C370.362,-617.326 366.989,-614.366 364,-611 227.16,-456.942 435.728,-300.652 292,-153 281.92,-142.645 269.253,-135.53 255.615,-130.733"/>
<polygon fill="none" stroke="black" points="256.627,-127.383 246.039,-127.771 254.558,-134.07 256.627,-127.383"/>
</g>
<!-- \\Phlyty\\Exception\\InvalidViewModelException -->
<g id="node7" class="node"><title>\\Phlyty\\Exception\\InvalidViewModelException</title>
<a xlink:href="Exception.InvalidViewModelException.html" xlink:title="InvalidViewModelException" target="_parent">
<polygon fill="none" stroke="black" points="552,-764 368,-764 368,-728 552,-728 552,-764"/>
<text text-anchor="middle" x="460" y="-743.1" font-family="Courier,monospace" font-size="11.00">InvalidViewModelException</text>
</a>
</g>
<!-- \\Phlyty\\Exception\\InvalidViewModelException&#45;&gt;\\Phlyty\\Exception\\ExceptionInterface -->
<g id="edge33" class="edge"><title>\\Phlyty\\Exception\\InvalidViewModelException&#45;&gt;\\Phlyty\\Exception\\ExceptionInterface</title>
<path fill="none" stroke="black" stroke-dasharray="1,5" d="M367.488,-753.955C322.437,-757.829 268.811,-762.44 225.61,-766.155"/>
<polygon fill="none" stroke="black" points="225.094,-762.686 215.431,-767.03 225.694,-769.66 225.094,-762.686"/>
</g>
<!-- \\Phlyty\\Exception\\InvalidViewModelException&#45;&gt;\\InvalidArgumentException -->
<g id="edge13" class="edge"><title>\\Phlyty\\Exception\\InvalidViewModelException&#45;&gt;\\InvalidArgumentException</title>
<path fill="none" stroke="black" d="M373.942,-727.987C370.313,-725.369 366.962,-722.39 364,-719 212.794,-545.962 450.945,-372.957 292,-207 287.437,-202.235 282.327,-198.154 276.825,-194.666"/>
<polygon fill="none" stroke="black" points="278.314,-191.489 267.878,-189.661 274.897,-197.598 278.314,-191.489"/>
</g>
<!-- \\Phlyty\\Exception\\InvalidControllerException -->
<g id="node8" class="node"><title>\\Phlyty\\Exception\\InvalidControllerException</title>
<a xlink:href="Exception.InvalidControllerException.html" xlink:title="InvalidControllerException" target="_parent">
<polygon fill="none" stroke="black" points="556,-602 364,-602 364,-566 556,-566 556,-602"/>
<text text-anchor="middle" x="460" y="-581.1" font-family="Courier,monospace" font-size="11.00">InvalidControllerException</text>
</a>
</g>
<!-- \\Phlyty\\Exception\\InvalidControllerException&#45;&gt;\\Phlyty\\Exception\\ExceptionInterface -->
<g id="edge35" class="edge"><title>\\Phlyty\\Exception\\InvalidControllerException&#45;&gt;\\Phlyty\\Exception\\ExceptionInterface</title>
<path fill="none" stroke="black" stroke-dasharray="1,5" d="M385.346,-602.062C377.994,-604.708 370.76,-607.679 364,-611 288.335,-648.171 212.031,-712.435 172.884,-747.82"/>
<polygon fill="none" stroke="black" points="170.138,-745.588 165.108,-754.913 174.855,-750.76 170.138,-745.588"/>
</g>
<!-- \\Phlyty\\Exception\\InvalidControllerException&#45;&gt;\\DomainException -->
<g id="edge15" class="edge"><title>\\Phlyty\\Exception\\InvalidControllerException&#45;&gt;\\DomainException</title>
<path fill="none" stroke="black" d="M377.931,-565.776C372.774,-562.474 368.043,-558.583 364,-554 244.225,-418.202 419.704,-281.37 292,-153 281.979,-142.927 269.505,-135.94 256.098,-131.177"/>
<polygon fill="none" stroke="black" points="256.782,-127.724 246.193,-128.09 254.699,-134.407 256.782,-127.724"/>
</g>
<!-- \\Phlyty\\Exception\\InvalidRouteException -->
<g id="node10" class="node"><title>\\Phlyty\\Exception\\InvalidRouteException</title>
<a xlink:href="Exception.InvalidRouteException.html" xlink:title="InvalidRouteException" target="_parent">
<polygon fill="none" stroke="black" points="539,-710 381,-710 381,-674 539,-674 539,-710"/>
<text text-anchor="middle" x="460" y="-689.1" font-family="Courier,monospace" font-size="11.00">InvalidRouteException</text>
</a>
</g>
<!-- \\Phlyty\\Exception\\InvalidRouteException&#45;&gt;\\Phlyty\\Exception\\ExceptionInterface -->
<g id="edge37" class="edge"><title>\\Phlyty\\Exception\\InvalidRouteException&#45;&gt;\\Phlyty\\Exception\\ExceptionInterface</title>
<path fill="none" stroke="black" stroke-dasharray="1,5" d="M389.923,-710.077C341.036,-722.688 275.731,-739.534 224.995,-752.622"/>
<polygon fill="none" stroke="black" points="223.86,-749.3 215.052,-755.187 225.609,-756.078 223.86,-749.3"/>
</g>
<!-- \\Phlyty\\Exception\\InvalidRouteException&#45;&gt;\\InvalidArgumentException -->
<g id="edge17" class="edge"><title>\\Phlyty\\Exception\\InvalidRouteException&#45;&gt;\\InvalidArgumentException</title>
<path fill="none" stroke="black" d="M380.573,-678.086C374.38,-674.607 368.714,-670.307 364,-665 227.16,-510.942 435.728,-354.652 292,-207 287.339,-202.212 282.125,-198.117 276.518,-194.623"/>
<polygon fill="none" stroke="black" points="277.856,-191.365 267.406,-189.615 274.484,-197.499 277.856,-191.365"/>
</g>
<!-- \\Phlyty\\Exception\\PassException -->
<g id="node11" class="node"><title>\\Phlyty\\Exception\\PassException</title>
<a xlink:href="Exception.PassException.html" xlink:title="PassException" target="_parent">
<polygon fill="none" stroke="black" points="512,-872 408,-872 408,-836 512,-836 512,-872"/>
<text text-anchor="middle" x="460" y="-851.1" font-family="Courier,monospace" font-size="11.00">PassException</text>
</a>
</g>
<!-- \\Phlyty\\Exception\\PassException&#45;&gt;\\Phlyty\\Exception\\ExceptionInterface -->
<g id="edge39" class="edge"><title>\\Phlyty\\Exception\\PassException&#45;&gt;\\Phlyty\\Exception\\ExceptionInterface</title>
<path fill="none" stroke="black" stroke-dasharray="1,5" d="M407.797,-840.534C357.929,-827.67 282.101,-808.109 224.867,-793.345"/>
<polygon fill="none" stroke="black" points="225.686,-789.942 215.129,-790.833 223.938,-796.72 225.686,-789.942"/>
</g>
<!-- \\Phlyty\\Exception\\PassException&#45;&gt;\\Exception -->
<g id="edge19" class="edge"><title>\\Phlyty\\Exception\\PassException&#45;&gt;\\Exception</title>
<path fill="none" stroke="black" d="M407.943,-850.103C391.779,-846.346 375.267,-839.453 364,-827 240.167,-690.133 367.683,-586.343 292,-418 262.897,-353.266 205.882,-291.505 172.36,-258.595"/>
<polygon fill="none" stroke="black" points="174.395,-255.694 164.777,-251.25 169.525,-260.721 174.395,-255.694"/>
</g>
<!-- \\Phlyty\\View\\MustacheViewModel -->
<g id="node13" class="node"><title>\\Phlyty\\View\\MustacheViewModel</title>
<a xlink:href="View.MustacheViewModel.html" xlink:title="MustacheViewModel" target="_parent">
<polygon fill="none" stroke="black" points="525,-520 395,-520 395,-484 525,-484 525,-520"/>
<text text-anchor="middle" x="460" y="-499.1" font-family="Courier,monospace" font-size="11.00">MustacheViewModel</text>
</a>
</g>
<!-- \\Phlyty\\View\\ViewInterface -->
<g id="node14" class="node"><title>\\Phlyty\\View\\ViewInterface</title>
<a xlink:href="View.ViewInterface.html" xlink:title="ViewInterface" target="_parent">
<polygon fill="none" stroke="black" points="198,-466 94,-466 94,-430 198,-430 198,-466"/>
<text text-anchor="middle" x="146" y="-445.1" font-family="Courier,monospace" font-size="11.00">ViewInterface</text>
</a>
</g>
<!-- \\Phlyty\\View\\MustacheView -->
<g id="node15" class="node"><title>\\Phlyty\\View\\MustacheView</title>
<a xlink:href="View.MustacheView.html" xlink:title="MustacheView" target="_parent">
<polygon fill="none" stroke="black" points="509,-466 411,-466 411,-430 509,-430 509,-466"/>
<text text-anchor="middle" x="460" y="-445.1" font-family="Courier,monospace" font-size="11.00">MustacheView</text>
</a>
</g>
<!-- \\Phlyty\\View\\MustacheView&#45;&gt;\\Phlyty\\View\\ViewInterface -->
<g id="edge41" class="edge"><title>\\Phlyty\\View\\MustacheView&#45;&gt;\\Phlyty\\View\\ViewInterface</title>
<path fill="none" stroke="black" stroke-dasharray="1,5" d="M410.938,-448C356.233,-448 267.643,-448 208.138,-448"/>
<polygon fill="none" stroke="black" points="208.115,-444.5 198.115,-448 208.115,-451.5 208.115,-444.5"/>
</g>
<!-- \\Phly\\Mustache\\Mustache -->
<g id="node33" class="node"><title>\\Phly\\Mustache\\Mustache</title>
<ellipse fill="none" stroke="black" cx="146" cy="-72" rx="135.765" ry="18.3848"/>
<text text-anchor="middle" x="146" y="-68.4" font-family="Times Roman,serif" font-size="14.00" fill="gray">\Phly\Mustache\Mustache</text>
</g>
<!-- \\Phlyty\\View\\MustacheView&#45;&gt;\\Phly\\Mustache\\Mustache -->
<g id="edge23" class="edge"><title>\\Phlyty\\View\\MustacheView&#45;&gt;\\Phly\\Mustache\\Mustache</title>
<path fill="none" stroke="black" d="M410.907,-447.14C394.014,-444.393 376.28,-438.385 364,-426 259.223,-320.323 398.994,-202.431 292,-99 286.521,-93.7036 280.361,-89.2704 273.749,-85.5716"/>
<polygon fill="none" stroke="black" points="274.989,-82.2798 264.476,-80.971 271.878,-88.5506 274.989,-82.2798"/>
</g>
<!-- \\Phlyty\\App -->
<g id="node16" class="node"><title>\\Phlyty\\App</title>
<a xlink:href="App.html" xlink:title="App" target="_parent">
<polygon fill="none" stroke="black" points="487,-412 433,-412 433,-376 487,-376 487,-412"/>
<text text-anchor="middle" x="460" y="-391.1" font-family="Courier,monospace" font-size="11.00">App</text>
</a>
</g>
<!-- \\Phlyty\\AppEvent -->
<g id="node17" class="node"><title>\\Phlyty\\AppEvent</title>
<a xlink:href="AppEvent.html" xlink:title="AppEvent" target="_parent">
<polygon fill="none" stroke="black" points="495,-358 425,-358 425,-322 495,-322 495,-358"/>
<text text-anchor="middle" x="460" y="-337.1" font-family="Courier,monospace" font-size="11.00">AppEvent</text>
</a>
</g>
<!-- \\Zend\\EventManager\\Event -->
<g id="node31" class="node"><title>\\Zend\\EventManager\\Event</title>
<ellipse fill="none" stroke="black" cx="146" cy="-18" rx="145.163" ry="18.3848"/>
<text text-anchor="middle" x="146" y="-14.4" font-family="Times Roman,serif" font-size="14.00" fill="gray">\Zend\EventManager\Event</text>
</g>
<!-- \\Phlyty\\AppEvent&#45;&gt;\\Zend\\EventManager\\Event -->
<g id="edge21" class="edge"><title>\\Phlyty\\AppEvent&#45;&gt;\\Zend\\EventManager\\Event</title>
<path fill="none" stroke="black" d="M424.154,-338.386C403.954,-335.617 379.7,-328.885 364,-313 277.301,-225.28 382.612,-128.672 292,-45 286.91,-40.3002 281.28,-36.2897 275.28,-32.8754"/>
<polygon fill="none" stroke="black" points="276.743,-29.6934 266.242,-28.289 273.575,-35.9356 276.743,-29.6934"/>
</g>
<!-- \\Phlyty\\Route -->
<g id="node18" class="node"><title>\\Phlyty\\Route</title>
<a xlink:href="Route.html" xlink:title="Route" target="_parent">
<polygon fill="none" stroke="black" points="487,-304 433,-304 433,-268 487,-268 487,-304"/>
<text text-anchor="middle" x="460" y="-283.1" font-family="Courier,monospace" font-size="11.00">Route</text>
</a>
</g>
</g>
</svg>
